HIERARCHY
ROOT root
{
	OFFSET 0.000000 0.000000 0.000000
	CHANNELS 6 Xposition Yposition Zposition Zrotation Yrotation Xrotation
	JOINT lhip
	{
		OFFSET 0.058581 -0.082280 -0.017664
		CHANNELS 3 Zrotation Yrotation Xrotation
		JOINT lknee
		{
			OFFSET 0.043451 -0.386469 0.008037
			CHANNELS 3 Zrotation Yrotation Xrotation
			JOINT lankle
			{
				OFFSET -0.014790 -0.426874 -0.037428
				CHANNELS 3 Zrotation Yrotation Xrotation
				JOINT ltoe
				{
					OFFSET 0.041054 -0.060286 0.122042
					CHANNELS 3 Zrotation Yrotation Xrotation
					End Site
					{
						OFFSET 0.000000 0.000000 0.000000
					}
				}
			}
		}
	}
	JOINT rhip
	{
		OFFSET -0.060310 -0.090513 -0.013543
		CHANNELS 3 Zrotation Yrotation Xrotation
		JOINT rknee
		{
			OFFSET -0.043257 -0.383688 -0.004843
			CHANNELS 3 Zrotation Yrotation Xrotation
			JOINT rankle
			{
				OFFSET 0.019056 -0.420046 -0.034562
				CHANNELS 3 Zrotation Yrotation Xrotation
				JOINT rtoe
				{
					OFFSET -0.034840 -0.062106 0.130323
					CHANNELS 3 Zrotation Yrotation Xrotation
					End Site
					{
						OFFSET 0.000000 0.000000 0.000000
					}
				}
			}
		}
	}
	JOINT lowerback
	{
		OFFSET 0.004439 0.124404 -0.038385
		CHANNELS 3 Zrotation Yrotation Xrotation
		JOINT upperback
		{
			OFFSET 0.004488 0.137956 0.026820
			CHANNELS 3 Zrotation Yrotation Xrotation
			JOINT chest
			{
				OFFSET -0.002265 0.056032 0.002855
				CHANNELS 3 Zrotation Yrotation Xrotation
				JOINT lowerneck
				{
					OFFSET -0.013390 0.211636 -0.033468
					CHANNELS 3 Zrotation Yrotation Xrotation
					JOINT upperneck
					{
						OFFSET 0.010113 0.088937 0.050410
						CHANNELS 3 Zrotation Yrotation Xrotation
						End Site
						{
							OFFSET 0.000000 0.000000 0.000000
						}
					}
				}
				JOINT lclavicle
				{
					OFFSET 0.071702 0.114000 -0.018898
					CHANNELS 3 Zrotation Yrotation Xrotation
					JOINT lshoulder
					{
						OFFSET 0.122921 0.045205 -0.019046
						CHANNELS 3 Zrotation Yrotation Xrotation
						JOINT lelbow
						{
							OFFSET 0.255332 -0.015649 -0.022946
							CHANNELS 3 Zrotation Yrotation Xrotation
							JOINT lwrist
							{
								OFFSET 0.265709 0.012698 -0.007375
								CHANNELS 3 Zrotation Yrotation Xrotation
								End Site
								{
									OFFSET 0.000000 0.000000 0.000000
								}
							}
						}
					}
				}
				JOINT rclavicle
				{
					OFFSET -0.082954 0.112472 -0.023707
					CHANNELS 3 Zrotation Yrotation Xrotation
					JOINT rshoulder
					{
						OFFSET -0.113228 0.046853 -0.008472
						CHANNELS 3 Zrotation Yrotation Xrotation
						JOINT relbow
						{
							OFFSET -0.260127 -0.014369 -0.031269
							CHANNELS 3 Zrotation Yrotation Xrotation
							JOINT rwrist
							{
								OFFSET -0.269108 0.006794 -0.006027
								CHANNELS 3 Zrotation Yrotation Xrotation
								End Site
								{
									OFFSET 0.000000 0.000000 0.000000
								}
							}
						}
					}
				}
			}
		}
	}
}
MOTION
Frames: 14
Frame Time: 0.033333
0.307180 0.166412 0.976188 15.169037 -0.565392 98.786313 -7.695501 0.277231 -2.524064 -3.636699 -9.648112 -3.119387 6.908621 12.769386 -10.277980 0.000000 -0.000000 0.000000 -25.372728 -6.964195 -0.432359 0.608211 2.059991 9.901256 20.484358 -14.901010 11.722867 0.000000 -0.000000 0.000000 7.334309 -4.507812 -1.789337 3.700681 -10.366319 -24.899191 3.107094 0.711105 10.742659 -8.509981 27.836727 6.596180 -0.995553 29.795693 -19.903764 31.247828 -4.560047 -17.465129 5.323839 -7.738955 -18.888918 10.659054 -1.080332 -19.095973 -17.948850 -18.900287 -32.886131 -27.723089 -10.855926 -18.907688 -1.873786 -5.830834 -19.794723 -125.483059 61.576120 -127.215426 19.770703 17.210537 -26.352229 
0.308505 0.166816 0.976462 15.736994 -0.975058 98.423049 -8.260498 0.178511 -2.073759 -3.268162 -10.275529 -3.184224 6.448839 12.518107 -10.118533 0.000000 -0.000000 0.000000 -25.855901 -7.488671 0.006196 0.596668 2.473956 10.209887 19.800152 -14.273871 11.607953 0.000000 -0.000000 0.000000 7.532038 -4.557413 -1.269650 3.452595 -10.550143 -25.323027 2.729024 0.905525 11.135242 -8.759252 27.646404 6.324077 -1.349950 30.028747 -19.789354 31.353946 -4.486687 -17.439057 5.184809 -7.617726 -19.018080 10.604106 -1.502108 -19.126800 -16.441106 -17.930204 -33.510188 -27.538721 -10.875130 -19.275353 -1.840261 -5.798845 -19.832660 -126.281635 61.931710 -128.443175 19.142323 16.963147 -26.864430 
0.307485 0.167725 0.976422 16.133721 -1.065028 98.447925 -8.265689 0.108641 -2.174416 -3.476917 -9.973142 -3.292588 6.414302 12.541928 -9.991705 0.000000 -0.000000 0.000000 -25.836344 -7.210345 0.102357 0.535460 2.280504 10.258303 19.623792 -14.118661 11.545989 0.000000 -0.000000 0.000000 7.417275 -4.466141 -1.380053 3.345038 -10.413418 -24.957052 2.690078 1.086213 11.096095 -8.568257 27.456966 6.347609 -1.338566 29.340784 -19.828807 31.680858 -4.566632 -17.498454 4.881648 -7.970929 -19.224004 10.889415 -1.083756 -19.853139 -18.557171 -18.690050 -33.028179 -27.567137 -10.582934 -19.549275 -1.668672 -6.146183 -19.518696 -125.823028 61.481170 -127.573800 21.032378 17.391103 -27.006929 
0.306205 0.169044 0.976538 16.740979 -1.087298 98.516799 -8.071473 -0.078548 -2.392600 -3.402103 -10.515385 -3.073469 6.306519 12.222769 -10.016419 0.000000 -0.000000 0.000000 -25.741680 -7.413306 0.101896 0.622012 2.117322 10.589838 19.463295 -14.073503 11.401548 0.000000 -0.000000 0.000000 7.202786 -4.454689 -1.266472 3.499227 -10.378050 -24.971536 2.871274 1.096723 11.032038 -7.984664 27.138182 6.533504 -1.479017 29.457946 -19.517415 31.648208 -4.291438 -17.083534 4.097489 -8.329586 -18.832981 11.456910 -1.885333 -19.447298 -17.047705 -18.585582 -33.558684 -27.711588 -10.849072 -18.980741 -1.392845 -5.694471 -19.369805 -125.083059 61.521862 -126.673597 18.898464 16.432605 -27.261327 
0.305241 0.169397 0.976738 17.140817 -1.162249 98.424561 -8.043684 -0.079455 -2.372660 -3.598603 -10.436125 -3.093698 6.309432 12.391547 -9.903071 0.000000 -0.000000 0.000000 -25.865651 -7.615433 0.313231 0.878914 2.024640 10.680323 19.505588 -14.044300 11.233446 0.000000 -0.000000 0.000000 7.077743 -4.433418 -1.142160 3.420482 -10.470001 -24.891374 2.801718 1.248604 11.110957 -8.150372 27.353531 6.374800 -1.009515 29.340779 -19.657182 31.616498 -4.352997 -17.228644 4.758157 -8.592654 -19.439293 10.867047 -1.512694 -20.040804 -17.790367 -17.746240 -32.850589 -26.974634 -10.689489 -19.025271 -1.843535 -5.674405 -19.758955 -125.353938 61.533094 -127.220005 19.486208 16.474916 -26.917032 
0.304286 0.169897 0.977076 17.526005 -1.204426 98.401789 -8.134962 -0.235986 -2.216862 -3.091543 -10.952471 -3.324951 6.189553 12.260839 -9.773130 0.000000 -0.000000 0.000000 -25.504539 -7.361605 0.327431 0.472646 2.386258 10.957420 19.428852 -14.107094 10.896766 0.000000 -0.000000 0.000000 7.242974 -4.324273 -1.066845 3.449704 -10.526420 -24.644914 2.842182 1.016522 10.734299 -8.353375 27.073783 6.751454 -1.152997 29.424959 -19.631904 30.951917 -4.703257 -17.168795 5.433741 -7.968450 -19.748240 10.165216 -1.374197 -20.431088 -19.050507 -17.803290 -32.299424 -27.409108 -10.097816 -18.938436 -1.675389 -5.607745 -20.024479 -125.202347 61.870893 -127.132016 20.394313 16.783798 -26.296447 
0.303129 0.170284 0.977539 18.107601 -1.276552 98.411641 -8.043806 -0.336558 -2.277534 -3.320567 -10.799990 -3.412540 6.191653 12.155031 -9.550160 0.000000 -0.000000 0.000000 -25.338786 -7.261885 0.429610 0.331736 2.547181 11.238980 19.363491 -13.874849 10.675282 0.000000 -0.000000 0.000000 7.340476 -4.384539 -1.155081 3.429359 -10.611038 -24.553126 2.699856 0.912439 10.866844 -8.050938 27.164937 6.894209 -1.712525 29.453429 -19.445398 31.171327 -4.224321 -16.940614 4.473605 -8.106750 -19.580056 10.927647 -1.980882 -20.104171 -18.274350 -17.930157 -32.919061 -27.845151 -10.191318 -18.705353 -0.710501 -5.117080 -19.898110 -125.697873 61.147733 -126.953706 19.918779 16.822160 -26.797980 
0.301753 0.170737 0.977738 18.619319 -1.451289 98.507755 -8.099871 -0.563952 -2.364680 -3.078228 -11.008890 -3.431421 5.966704 11.657450 -9.427630 0.000000 -0.000000 0.000000 -25.534894 -7.129453 0.565944 0.478791 2.387169 11.296657 19.492431 -13.472096 10.458376 0.000000 -0.000000 0.000000 7.138200 -4.273484 -1.352286 3.242307 -10.573843 -24.195205 2.573139 1.064660 10.635983 -8.064326 27.837033 7.028147 -1.591296 29.793944 -19.290526 31.629601 -4.418549 -17.343385 4.202891 -8.809843 -19.218273 11.256203 -1.304377 -19.703737 -19.140883 -18.782479 -32.709957 -27.510972 -9.848326 -18.843280 -0.887791 -5.390755 -19.476029 -125.551892 60.836482 -126.987245 20.709347 17.823735 -26.075709 
0.300064 0.171070 0.977895 19.208313 -1.452401 98.640202 -7.916142 -0.714661 -2.594598 -3.186241 -11.416419 -3.447337 6.002131 11.921897 -9.089498 0.000000 -0.000000 0.000000 -25.325846 -6.956606 0.691246 0.691720 2.721430 11.317792 19.252975 -13.559904 10.201162 0.000000 -0.000000 0.000000 7.372895 -4.320632 -1.714274 3.097462 -10.380403 -24.394352 2.386922 1.222986 11.130196 -8.308699 26.766611 6.780476 -1.620037 29.032601 -18.365199 31.373797 -4.006696 -16.626266 3.018357 -9.342949 -18.329133 12.749154 -3.886841 -16.469384 -11.597754 -18.014640 -33.907621 -27.970017 -10.717884 -18.309469 0.101338 -4.470585 -19.734302 -126.459001 61.250589 -126.035405 15.886326 16.452123 -27.890888 
0.298630 0.171469 0.978524 19.866371 -1.651708 98.473572 -8.093045 -0.641510 -2.436039 -2.916638 -11.468110 -3.550144 5.779377 11.347471 -8.884878 0.000000 -0.000000 0.000000 -25.289002 -7.015407 0.937114 0.652616 2.507754 11.556939 19.136072 -13.567949 9.990862 0.000000 -0.000000 0.000000 7.422419 -4.080018 -1.765392 2.734003 -10.570472 -23.501870 2.335343 1.215925 10.310550 -8.211158 26.864067 7.435566 -1.283406 28.913214 -18.320913 30.921938 -5.119585 -17.883191 4.816552 -9.116255 -19.200763 11.070263 -1.953273 -19.172687 -19.253413 -18.810876 -31.823232 -27.840102 -9.256498 -18.949919 -0.492297 -5.537594 -19.208509 -125.874088 60.946583 -126.777810 20.839442 17.512001 -26.356890 
0.296978 0.172113 0.979222 20.347220 -1.814803 98.507024 -8.187569 -0.842644 -2.547450 -2.813383 -11.609936 -3.631459 5.699518 11.525397 -8.622663 0.000000 -0.000000 0.000000 -25.302522 -6.871925 0.994065 0.772589 2.540460 11.709932 18.967685 -13.527387 9.857203 0.000000 -0.000000 0.000000 7.247886 -4.023281 -1.732897 2.686024 -10.537381 -23.406299 2.327202 1.339883 10.330611 -8.626258 26.571566 7.237888 -0.961283 28.933486 -18.183283 30.955482 -5.367840 -17.836952 4.783652 -9.063454 -19.017769 10.971538 -2.139090 -19.345985 -17.723534 -18.133788 -32.534123 -27.424999 -9.299470 -18.987920 -0.984948 -5.404820 -19.342453 -126.413603 61.426264 -127.973516 18.536607 17.750123 -25.689116 
0.295663 0.172803 0.979959 20.934295 -2.046855 98.459500 -8.262954 -1.015134 -2.637596 -3.004132 -11.594973 -3.528904 5.632469 11.553375 -8.226178 0.000000 -0.000000 0.000000 -25.319060 -6.919836 1.148259 0.691391 2.383903 11.916378 18.811054 -13.758849 9.795970 0.000000 -0.000000 0.000000 7.153501 -4.017381 -1.619483 2.505983 -10.441725 -23.501206 2.119694 1.583789 10.599518 -8.328718 26.079335 7.242399 -1.116871 28.570196 -18.082258 31.625146 -4.993900 -17.551392 3.828369 -9.746725 -18.883313 11.371478 -2.337129 -18.815520 -17.418826 -18.289715 -33.709990 -27.620375 -9.743386 -19.019437 0.074332 -4.909335 -19.309921 -126.246723 61.538701 -127.161249 18.418139 17.036431 -26.149636 
0.293902 0.173727 0.980632 21.361905 -2.238609 98.329613 -8.366654 -0.871154 -2.659181 -3.105319 -11.039301 -3.521210 5.443252 11.143732 -7.981783 0.000000 -0.000000 0.000000 -25.437466 -6.989150 1.221685 0.785204 1.937298 12.204258 18.804986 -13.553540 9.669556 0.000000 -0.000000 0.000000 7.143114 -4.077338 -1.485475 2.296399 -10.493429 -23.302771 2.062458 1.802830 10.427460 -8.308485 26.211298 7.508722 -1.060823 28.415422 -17.788717 31.628505 -5.291791 -17.577543 4.100332 -9.807662 -19.077468 10.865675 -1.862855 -19.732409 -18.814634 -18.471250 -32.636823 -27.262740 -9.165630 -18.985048 -0.009299 -4.913965 -19.114868 -125.822960 61.353630 -127.302605 19.530851 17.597082 -25.924472 
0.291791 0.174787 0.981109 21.992828 -2.245832 98.348289 -8.292721 -0.961629 -2.804343 -2.952292 -11.081573 -3.526575 5.260476 10.947115 -7.846325 0.000000 -0.000000 0.000000 -25.152143 -6.843067 1.305560 0.792817 1.938118 12.422259 18.696627 -13.592373 9.243625 0.000000 -0.000000 0.000000 7.289177 -4.083603 -1.513750 2.178321 -10.376565 -23.248363 2.016104 1.936359 10.495476 -8.656848 26.220878 7.981738 -1.019977 27.957969 -17.760188 31.740454 -5.292773 -17.704643 3.277643 -10.206623 -18.659550 11.623054 -2.627278 -19.294513 -18.314765 -18.600877 -32.998174 -27.421029 -8.833235 -18.739848 0.317259 -4.972507 -19.039873 -125.655591 61.225600 -126.759930 19.047172 17.280734 -26.217771 
